<svg width="24" height="24" viewBox="0 0 24 24" fill="none" xmlns="http://www.w3.org/2000/svg">
<path fill-rule="evenodd" clip-rule="evenodd" d="M7.002 6.66837C6.69855 6.34197 6.20628 6.34197 5.90286 6.66837L4.80349 7.85125C4.50005 8.17774 4.50005 8.70708 4.80349 9.03385L10.9982 15.6987C11.025 15.7278 11.5182 16.0449 12.0084 16.0447C12.4933 16.0444 12.9753 15.7275 13.0021 15.6987L19.1965 9.03385C19.4999 8.7071 19.4999 8.17774 19.1965 7.85125L18.0972 6.66837C17.7938 6.34197 17.3017 6.34197 16.9983 6.66837L13.5001 10.4322V2.30717C13.5001 1.86162 13.1641 1.5 12.75 1.5H11.25C10.836 1.5 10.5002 1.86162 10.5002 2.30717V10.4322L7.002 6.66837ZM4.49981 22.5H19.4999C21.1569 22.5 22.4999 21.0552 22.4999 19.2723V15.2375C22.4999 14.7919 22.1641 14.4307 21.75 14.4307H20.25C19.8357 14.4307 19.4999 14.7919 19.4999 15.2375V17.6584C19.4999 18.5498 18.8284 19.2723 18 19.2723H5.99978C5.17132 19.2723 4.49981 18.5498 4.49981 17.6584V15.2375C4.49981 14.7919 4.16407 14.4307 3.74997 14.4307H2.24972C1.83588 14.4307 1.49988 14.7919 1.49988 15.2375V19.2723C1.49988 21.0552 2.84313 22.5 4.49981 22.5Z" fill="#fff"/>
</svg>
